<svg xmlns="http://www.w3.org/2000/svg" viewBox="0 0 100 100" width="100" height="100">
  <circle cx="50" cy="50" r="50" fill="#FFC107"/>
  <path d="
    M50 30
    a2 2 0 0 1 2 2
    l0.5 4.5
    a16 16 0 0 1 4 1.7
    l3.8-2.5
    a2 2 0 0 1 2.6 0.3
    l2.8 2.8
    a2 2 0 0 1 0.3 2.6
    l-2.5 3.8
    a16 16 0 0 1 1.7 4
    l4.5 0.5
    a2 2 0 0 1 2 2
    v4
    a2 2 0 0 1-2 2
    l-4.5 0.5
    a16 16 0 0 1-1.7 4
    l2.5 3.8
    a2 2 0 0 1-0.3 2.6
    l-2.8 2.8
    a2 2 0 0 1-2.6 0.3
    l-3.8-2.5
    a16 16 0 0 1-4 1.7
    l-0.5 4.5
    a2 2 0 0 1-2 2
    h-4
    a2 2 0 0 1-2-2
    l-0.5-4.5
    a16 16 0 0 1-4-1.7
    l-3.8 2.5
    a2 2 0 0 1-2.6-0.3
    l-2.8-2.8
    a2 2 0 0 1-0.3-2.6
    l2.5-3.8
    a16 16 0 0 1-1.7-4
    l-4.5-0.5
    a2 2 0 0 1-2-2
    v-4
    a2 2 0 0 1 2-2
    l4.5-0.5
    a16 16 0 0 1 1.7-4
    l-2.5-3.8
    a2 2 0 0 1 0.3-2.6
    l2.8-2.8
    a2 2 0 0 1 2.6-0.3
    l3.8 2.5
    a16 16 0 0 1 4-1.7
    l0.5-4.5
    a2 2 0 0 1 2-2
    z
  " fill="white"/>
  <circle cx="50" cy="50" r="9" fill="#FFC107"/>
</svg>
